<svg width="512" height="512" xmlns="http://www.w3.org/2000/svg">

 <g>
  <title>background</title>
  <rect fill="none" id="canvas_background" height="402" width="582" y="-1" x="-1"/>
 </g>
 <g>
  <title>Layer 1</title>
  <path id="svg_2" fill="#bc2bba" d="m512.398,256.43c0,141.383 -114.619,255.998 -256.003,255.998c-141.383,0 -255.998,-114.615 -255.998,-255.998c0,-141.388 114.614,-256.002 255.998,-256.002c141.384,-0.001 256.003,114.614 256.003,256.002z"/>
  <path id="svg_6" fill="#2B5791" d="m320.895,8.635c-20.604,-5.348 -42.22,-8.208 -64.499,-8.208c-22.282,0 -43.893,2.86 -64.5,8.208l128.999,0z"/>
  <path id="svg_8" fill="#26303f" d="m450.838,90.004l-292.878,0l0,-18.922l274.92,0c-17.261,-16.439 -36.797,-30.487 -58.115,-41.629l-236.737,0c-38.963,20.361 -72.015,50.44 -95.964,87.047l428.672,0c-6.068,-9.271 -12.715,-18.111 -19.898,-26.496z"/>
  <path id="svg_10" fill="#26303f" d="m337.732,279.238l0,-9.462l174.322,0c0.231,-4.419 0.344,-8.871 0.344,-13.347c0,-5.696 -0.251,-11.328 -0.613,-16.932l-100.251,0l0,-11.351l99.276,0c-0.558,-5.098 -1.3,-10.139 -2.154,-15.139l-178.491,0l0,-15.14l175.427,0c-1.652,-7.057 -3.574,-14.001 -5.798,-20.817l-146.922,0l0,-17.029l140.691,0c-5.089,-12.502 -11.091,-24.531 -18.004,-35.956l-438.32,0c-23.378,38.627 -36.841,83.92 -36.841,132.365c0,141.383 114.614,255.998 255.998,255.998c133.69,0 243.394,-102.498 254.944,-233.189l-173.608,0l0,-0.001z"/>
  <path id="svg_11" fill="#231F20" d="m189.824,151.541c1.437,0.506 1.806,1.226 1.994,1.853c0.947,3.306 -2.068,9.782 -5.766,15.645c2.433,0.418 4.891,0.845 7.377,1.277c3.5,-5.994 6.599,-13.333 5.044,-18.812c-0.887,-3.097 -3.094,-5.334 -6.372,-6.481c-11.834,-4.136 -43.575,9.411 -56.82,15.488c2.86,0.464 7.161,1.174 12.486,2.056c16.47,-6.908 35.527,-13.287 42.057,-11.026z"/>
  <path id="svg_12" d="m333.688,202.2l0,-0.004c11.5,3.523 19.87,6.263 22.567,7.154c0.659,-10.445 1.305,-25.859 0.339,-37.038c-1.615,-18.454 -9.238,-38.918 -9.238,-38.918s-71.249,37.089 -93.653,47.971c4.383,0.873 8.444,1.708 12.057,2.493c22.841,4.958 49.341,12.642 67.928,18.342z"/>
  <path id="svg_13" fill="#c4c4c4" d="m92.545,168.37l0,46.978l-89.006,1.026c-1.597,10.162 -2.549,20.534 -2.913,31.054l100.624,0c4.689,-9.317 8.918,-19.35 9.304,-24.731c0.313,-4.336 0.471,-24.405 0.55,-43.7c-2.18,-7.73 -3.28,-14.703 -3.823,-19.499l-87.323,-1.3c-1.342,3.227 -2.642,6.481 -3.854,9.772l76.441,0.4z"/>
  <path id="svg_14" fill="#D1D1D1" d="m155.456,228.7c-3.062,-0.938 -6.077,-1.982 -8.988,-3.268c-17.846,-7.897 -27.674,-24.174 -33.094,-39.318c-0.086,16.899 -0.239,32.851 -0.52,36.75c-0.411,5.654 -4.505,15.492 -9.011,24.563l31.848,0c5.364,-8.124 12.251,-14.266 19.765,-18.727z"/>
  <path id="svg_15" fill="#D1D1D1" d="m276.726,247.428c-5.135,-2.916 -10.854,-5.469 -17.299,-7.475c-14.944,-4.656 -32.964,-5.009 -50.396,-5.353c-8.665,-0.172 -17.439,-0.372 -26.068,-1.059c-10.037,1.328 -20.775,5.687 -29.22,13.886l122.983,0l0,0.001z"/>
  <path id="svg_16" fill="#D1D1D1" d="m135.282,160.511c-2.565,-0.423 -4,-0.655 -4,-0.655l-0.727,-0.009c0.121,0.85 0.25,1.722 0.408,2.679c1.02,-0.488 2.51,-1.189 4.319,-2.015z"/>
  <path id="svg_17" fill="#D1D1D1" d="m131.983,167.697c0.104,0.473 0.209,0.947 0.323,1.435l0.422,0.093l-0.745,-1.528z"/>
  <path id="svg_18" fill="#D1D1D1" d="m131.983,167.697l0.745,1.527l0.181,0.037c4.318,-2.094 9.445,-4.424 14.858,-6.695c-5.325,-0.882 -9.626,-1.592 -12.486,-2.056c-1.809,0.826 -3.299,1.527 -4.318,2.015c0.27,1.598 0.621,3.352 1.02,5.172z"/>
  <path id="svg_19" fill="#D1D1D1" d="m265.76,183.858c-3.612,-0.785 -7.674,-1.621 -12.057,-2.493c-17.182,-3.426 -39.441,-7.433 -60.274,-11.049c-2.486,-0.432 -4.944,-0.859 -7.377,-1.277c-14.759,-2.539 -28.333,-4.819 -38.285,-6.472c-5.413,2.271 -10.541,4.601 -14.858,6.695l178.495,38.356c0,0 6.444,1.346 5.377,8.264c-0.892,5.789 -7.112,5.385 -7.112,5.385l-43.965,-3.454c0.186,0.056 0.381,0.098 0.566,0.153c20.135,6.263 35.246,17.01 46.564,29.461l20.854,0l0,-33.881l0,-11.346c-18.587,-5.7 -45.087,-13.384 -67.928,-18.342z"/>
  <path id="svg_20" fill="#B6B8B7" d="m280.374,308.876c0,1.746 -0.116,3.464 -0.26,5.172l38.802,0c-1.406,-10.91 -6.476,-34.387 -24.493,-52.967l-36.927,0c13.946,11.263 22.878,28.478 22.878,47.795z"/>
  <path id="svg_21" fill="#B6B8B7" d="m128.963,261.081l-32.516,0c-0.106,0.182 -0.229,0.404 -0.334,0.576c-5.701,9.494 -36.291,47.465 -47.005,52.391l65.735,0c4.766,-9.972 8.319,-22.684 10.439,-37.985c0.754,-5.451 2.042,-10.404 3.681,-14.982z"/>
  <path id="svg_22" fill="#B6B8B7" d="m332.407,261.081l-9.016,0c3.565,5.465 6.556,11.045 9.016,16.598l0,-16.598z"/>
  <path id="svg_23" fill="#B6B8B7" d="m180.388,261.081l-36.42,0c-2.352,4.894 -4.116,10.469 -5.002,16.866c-1.924,13.956 -4.96,25.957 -9.009,36.101l27.818,0c-0.142,-1.708 -0.26,-3.426 -0.26,-5.172c0,-19.317 8.932,-36.532 22.873,-47.795z"/>
  <path id="svg_24" fill="#B6B8B7" d="m6.812,313.277c4.153,0.037 8.136,0.056 11.853,0.056c0.007,0 0.007,0 0.007,0c22.372,0 27.7,-0.664 28.879,-1.063c9.12,-3.041 39.77,-40.979 46.188,-51.188l-93.223,0c0.32,17.91 2.477,35.366 6.296,52.195z"/>
  <rect id="svg_25" fill="#251F1F" y="298.029" x="298.819" width="0" height="41.175"/>
  <path id="svg_26" fill="#251F1F" d="m280.114,314.048c-0.251,3.041 -0.743,6.008 -1.421,8.904l40.251,-8.677c-0.01,-0.074 -0.019,-0.153 -0.028,-0.228l-38.802,0l0,0.001z"/>
  <path id="svg_27" fill="#251F1F" d="m92.545,168.37l-76.441,-0.399c-5.703,15.482 -9.938,31.676 -12.565,48.403l89.006,-1.026l0,-46.978z"/>
  <path id="svg_28" fill="#231F20" d="m135.69,247.428l18.053,0c8.445,-8.199 19.183,-12.558 29.22,-13.886c-9.482,-0.757 -18.763,-2.164 -27.507,-4.842c-7.514,4.461 -14.401,10.603 -19.766,18.728z"/>
  <path id="svg_29" fill="#231F20" d="m157.774,314.048l-27.818,0c4.048,-10.144 7.084,-22.145 9.009,-36.101c0.887,-6.397 2.651,-11.973 5.002,-16.866l-15.004,0c-1.639,4.578 -2.927,9.531 -3.682,14.981c-2.12,15.302 -5.673,28.014 -10.439,37.985l-65.735,0c-0.27,0.125 -0.583,0.325 -0.827,0.404c-0.873,0.292 -3.535,1.184 -29.61,1.184c0,0 0,0 -0.007,0c-3.517,0 -7.329,-0.019 -11.321,-0.051c1.639,6.922 3.547,13.736 5.733,20.427l82.377,0l21.775,0l19.845,0l25.696,-2.34c-2.691,-6.086 -4.413,-12.688 -4.994,-19.623z"/>
  <path id="svg_30" fill="#231F20" d="m112.854,222.864c0.281,-3.9 0.434,-19.852 0.52,-36.75c-0.863,-2.414 -1.616,-4.795 -2.27,-7.117c-0.079,19.294 -0.237,39.364 -0.55,43.7c-0.385,5.381 -4.615,15.414 -9.304,24.731l2.593,0c4.505,-9.072 8.6,-18.909 9.011,-24.564z"/>
  <path id="svg_31" fill="#231F20" d="m96.113,261.657c0.104,-0.172 0.228,-0.395 0.334,-0.576l-2.708,0c-6.419,10.209 -37.069,48.148 -46.189,51.189c-1.179,0.399 -6.507,1.063 -28.879,1.063c0,0 0,0 -0.007,0c-3.716,0 -7.7,-0.019 -11.853,-0.056c0.058,0.26 0.119,0.516 0.179,0.771l42.117,0c10.715,-4.926 41.305,-42.897 47.006,-52.391z"/>
  <path id="svg_32" fill="#231F20" d="m7.343,315.585c3.992,0.032 7.804,0.051 11.321,0.051c0.007,0 0.007,0 0.007,0c26.075,0 28.737,-0.892 29.61,-1.184c0.244,-0.079 0.557,-0.279 0.827,-0.404l-42.118,0c0.119,0.511 0.233,1.026 0.353,1.537z"/>
  <path id="svg_33" fill="#231F20" d="m0.451,254.34c-0.004,0.585 -0.044,1.161 -0.044,1.746l96.263,0c0.311,-0.552 0.634,-1.17 0.949,-1.746l-97.168,0z"/>
  <path id="svg_34" fill="#231F20" d="m250.244,256.086l38.867,0c-0.687,-0.589 -1.393,-1.17 -2.117,-1.746l-39.844,0c1.056,0.548 2.078,1.142 3.094,1.746z"/>
  <path id="svg_35" fill="#231F20" d="m100.242,254.34c-0.32,0.59 -0.636,1.179 -0.952,1.746l31.676,0c0.27,-0.594 0.555,-1.165 0.84,-1.746l-31.564,0z"/>
  <path id="svg_36" fill="#231F20" d="m319.942,256.086l13.746,0l0,-1.746l-15.074,0c0.442,0.581 0.897,1.161 1.328,1.746z"/>
  <path id="svg_37" fill="#231F20" d="m147.868,254.34c-0.395,0.571 -0.78,1.151 -1.154,1.746l40.924,0c1.019,-0.604 2.041,-1.198 3.094,-1.746l-42.864,0z"/>
  <path id="svg_38" fill="#231F20" d="m323.392,261.081l9.016,0l0,-0.552l1.281,0l0,-4.443l-13.746,0c1.211,1.652 2.353,3.314 3.449,4.995z"/>
  <path id="svg_39" fill="#231F20" d="m99.291,256.086c-0.996,1.806 -1.955,3.496 -2.844,4.995l32.517,0c0.617,-1.722 1.276,-3.394 2.003,-4.995l-31.676,0z"/>
  <path id="svg_40" fill="#231F20" d="m289.111,256.086l-38.867,0c2.535,1.504 4.972,3.152 7.252,4.995l36.927,0c-1.662,-1.713 -3.422,-3.38 -5.312,-4.995z"/>
  <path id="svg_41" fill="#231F20" d="m187.638,256.086l-40.924,0c-0.994,1.569 -1.903,3.245 -2.746,4.995l36.42,0c2.282,-1.843 4.717,-3.491 7.25,-4.995z"/>
  <path id="svg_42" fill="#231F20" d="m96.67,256.086l-96.263,0c0,0.116 -0.009,0.228 -0.009,0.344c0,1.56 0.09,3.097 0.118,4.651l93.222,0c0.121,-0.19 0.292,-0.44 0.395,-0.612c0.807,-1.347 1.662,-2.823 2.537,-4.383z"/>
  <path id="svg_43" fill="#231F20" d="m131.807,254.34c-0.286,0.581 -0.571,1.151 -0.84,1.746l15.748,0c0.374,-0.594 0.759,-1.174 1.154,-1.746l-16.062,0z"/>
  <path id="svg_44" fill="#231F20" d="m130.966,256.086c-0.727,1.602 -1.386,3.273 -2.003,4.995l15.004,0c0.843,-1.75 1.752,-3.426 2.746,-4.995l-15.747,0z"/>
  <path id="svg_45" fill="#231F20" d="m97.619,254.34c-0.315,0.576 -0.638,1.193 -0.949,1.746l2.621,0c0.315,-0.566 0.631,-1.156 0.952,-1.746l-2.624,0z"/>
  <path id="svg_46" fill="#231F20" d="m96.67,256.086c-0.875,1.56 -1.729,3.036 -2.537,4.383c-0.102,0.172 -0.274,0.422 -0.395,0.612l2.708,0c0.889,-1.499 1.848,-3.189 2.844,-4.995l-2.62,0z"/>
  <path id="svg_47" fill="#F6F6F6" d="m153.743,247.428l-18.053,0l-31.848,0l-2.593,0l-100.624,0c-0.077,2.242 -0.151,4.485 -0.169,6.741l97.256,0l2.623,0l31.553,0l16.105,0l43.097,0c8.366,-4.271 17.811,-6.727 27.848,-6.727c10.04,0 19.487,2.456 27.855,6.727l39.998,0c-3.055,-2.414 -6.416,-4.666 -10.064,-6.741l-122.984,0z"/>
  <path id="svg_48" fill="#F6F6F6" d="m312.835,247.428c2.001,2.201 3.886,4.443 5.646,6.741l15.208,0l0,-6.741l-20.854,0z"/>
  <path id="svg_49" fill="#FAFAFA" fill-opacity="0.78" d="m97.619,254.34c0.03,-0.056 0.061,-0.116 0.093,-0.172l-97.256,0c-0.002,0.056 -0.005,0.116 -0.005,0.172l97.168,0z"/>
  <path id="svg_50" fill="#FAFAFA" fill-opacity="0.78" d="m131.807,254.34c0.028,-0.056 0.053,-0.116 0.081,-0.172l-31.553,0c-0.03,0.061 -0.063,0.112 -0.093,0.172l31.565,0z"/>
  <path id="svg_51" fill="#FAFAFA" fill-opacity="0.78" d="m286.994,254.34c-0.069,-0.056 -0.135,-0.116 -0.204,-0.172l-39.998,0c0.119,0.061 0.242,0.112 0.357,0.172l39.845,0z"/>
  <path id="svg_52" fill="#FAFAFA" fill-opacity="0.78" d="m190.732,254.34c0.118,-0.06 0.239,-0.111 0.357,-0.172l-43.097,0c-0.04,0.061 -0.083,0.112 -0.125,0.172l42.865,0z"/>
  <path id="svg_53" fill="#FAFAFA" fill-opacity="0.78" d="m318.614,254.34l15.074,0l0,-0.172l-15.208,0c0.046,0.056 0.093,0.117 0.134,0.172z"/>
  <path id="svg_54" fill="#FAFAFA" fill-opacity="0.78" d="m147.993,254.168l-16.105,0c-0.028,0.056 -0.053,0.116 -0.081,0.172l16.061,0c0.041,-0.06 0.085,-0.111 0.125,-0.172z"/>
  <path id="svg_55" fill="#FAFAFA" fill-opacity="0.78" d="m100.242,254.34c0.03,-0.06 0.063,-0.111 0.093,-0.172l-2.623,0c-0.032,0.056 -0.063,0.116 -0.093,0.172l2.623,0z"/>
  <polygon id="svg_56" fill="#251F1F" points="277.314,323.249 278.693,322.952 278.693,322.952  "/>
  <path id="svg_57" fill="#251F1F" d="m257.496,261.081l-77.108,0c-13.941,11.263 -22.874,28.478 -22.874,47.795c0,1.746 0.118,3.464 0.26,5.172c0.581,6.936 2.303,13.537 4.996,19.624c9.533,21.564 31.077,36.639 56.167,36.639c29.078,0 53.382,-20.228 59.756,-47.358c0.678,-2.896 1.17,-5.863 1.421,-8.904c0.144,-1.708 0.26,-3.426 0.26,-5.172c0,-19.318 -8.932,-36.533 -22.878,-47.796zm3.473,63.654c-6.421,16.991 -22.792,29.094 -42.031,29.094c-16.33,0 -30.583,-8.741 -38.457,-21.769c-3.25,-5.376 -5.425,-11.472 -6.174,-18.013c-0.195,-1.699 -0.32,-3.422 -0.32,-5.172c0,-24.823 20.127,-44.958 44.951,-44.958c24.833,0 44.965,20.135 44.965,44.958c0,1.75 -0.125,3.473 -0.32,5.172c-0.428,3.724 -1.333,7.299 -2.614,10.688z"/>
  <path id="svg_58" fill="#251F1F" d="m247.15,254.34l-56.418,0c-1.054,0.548 -2.075,1.142 -3.094,1.746l62.606,0c-1.016,-0.604 -2.038,-1.198 -3.094,-1.746z"/>
  <path id="svg_59" fill="#251F1F" d="m187.638,256.086c-2.533,1.504 -4.968,3.152 -7.25,4.995l77.108,0c-2.28,-1.843 -4.717,-3.491 -7.252,-4.995l-62.606,0z"/>
  <path id="svg_60" fill="#251F1F" d="m218.938,247.441c-10.037,0 -19.482,2.456 -27.848,6.727l55.703,0c-8.369,-4.271 -17.816,-6.727 -27.855,-6.727z"/>
  <path id="svg_61" fill="#251F1F" d="m247.15,254.34c-0.116,-0.06 -0.239,-0.111 -0.357,-0.172l-55.703,0c-0.119,0.061 -0.239,0.112 -0.357,0.172l56.417,0z"/>
  <path id="svg_62" fill="#C2C2C2" d="m218.938,339.419c-8.408,0 -16.017,-3.398 -21.537,-8.899l-16.92,1.541c7.874,13.027 22.126,21.769 38.457,21.769c19.239,0 35.61,-12.103 42.031,-29.094l-16.95,1.546c-5.516,7.933 -14.687,13.137 -25.081,13.137z"/>
  <path id="svg_63" fill="#C2C2C2" d="m188.404,308.876c0,-16.866 13.667,-30.543 30.534,-30.543s30.543,13.677 30.543,30.543c0,1.765 -0.183,3.486 -0.471,5.172l14.573,0c0.195,-1.699 0.32,-3.422 0.32,-5.172c0,-24.823 -20.132,-44.958 -44.965,-44.958c-24.824,0 -44.951,20.135 -44.951,44.958c0,1.75 0.125,3.473 0.32,5.172l14.568,0c-0.288,-1.686 -0.471,-3.407 -0.471,-5.172z"/>
  <path id="svg_64" fill="#C2C2C2" d="m188.875,314.048l-14.568,0c0.75,6.541 2.925,12.637 6.174,18.013l16.92,-1.541c-4.397,-4.374 -7.438,-10.088 -8.526,-16.472z"/>
  <path id="svg_65" fill="#C2C2C2" d="m249.009,314.048c-0.766,4.484 -2.493,8.64 -4.991,12.233l16.95,-1.546c1.281,-3.39 2.187,-6.964 2.613,-10.688l-14.572,0l0,0.001z"/>
  <path id="svg_66" fill="#262626" d="m218.938,278.333c-16.866,0 -30.534,13.677 -30.534,30.543c0,1.765 0.183,3.486 0.471,5.172c1.088,6.384 4.129,12.099 8.526,16.472c5.52,5.501 13.129,8.899 21.537,8.899c10.395,0 19.566,-5.204 25.081,-13.138c2.498,-3.594 4.225,-7.749 4.991,-12.233c0.288,-1.686 0.471,-3.407 0.471,-5.172c-0.001,-16.866 -13.677,-30.543 -30.543,-30.543z"/>
  <path id="svg_67" d="m152.178,202.391l0,-12.985c0,-4.995 3.937,-9.034 8.793,-9.034c4.863,0 8.797,4.039 8.797,9.034l0,15.947c0,1.105 -0.221,2.149 -0.573,3.129c2.358,0.488 4.786,0.892 7.272,1.226l0,-15.696c0,-4.991 3.944,-9.034 8.791,-9.034c4.863,0 8.8,4.043 8.8,9.034l0,15.947c0,0.409 -0.065,0.798 -0.116,1.188c2.245,0.093 4.521,0.167 6.817,0.228l0,-12.753c0,-4.986 3.935,-9.039 8.791,-9.039c4.861,0 8.797,4.053 8.797,9.039l0,13.152c16.019,0.418 32.235,1.425 47.356,6.04l43.965,3.454c0,0 6.221,0.404 7.112,-5.385c1.067,-6.917 -5.377,-8.264 -5.377,-8.264l-178.495,-38.356c-0.042,0.023 -0.09,0.046 -0.132,0.065l-0.049,-0.102l-0.422,-0.093c2.726,11.591 8.357,26.053 19.873,33.258z"/>
  <path id="svg_68" d="m132.909,169.262l-0.181,-0.037l0.049,0.102c0.042,-0.019 0.091,-0.042 0.132,-0.065z"/>
  <path id="svg_69" fill="#0776C7" d="m169.769,189.405c0,-4.995 -3.935,-9.034 -8.797,-9.034c-4.856,0 -8.793,4.039 -8.793,9.034l0,12.985c1.156,0.724 2.337,1.416 3.616,1.982c4.125,1.824 8.638,3.12 13.401,4.108c0.353,-0.979 0.573,-2.024 0.573,-3.129l0,-15.946z"/>
  <path id="svg_70" fill="#0776C7" d="m194.058,194.011c0,-4.991 -3.937,-9.034 -8.8,-9.034c-4.847,0 -8.791,4.043 -8.791,9.034l0,15.696c5.566,0.752 11.409,1.188 17.475,1.439c0.051,-0.39 0.116,-0.78 0.116,-1.188l0,-15.947z"/>
  <path id="svg_71" fill="#0776C7" d="m209.55,189.582c-4.856,0 -8.791,4.053 -8.791,9.039l0,12.753c2.883,0.079 5.787,0.139 8.728,0.2c2.941,0.056 5.898,0.125 8.86,0.199l0,-13.152c0.001,-4.986 -3.936,-9.039 -8.797,-9.039z"/>
  <path id="svg_72" fill="#949494" d="m106.786,153.774c-0.021,-0.414 -0.032,-0.71 -0.037,-0.836l0.107,-0.004c-0.462,-0.701 -0.798,-1.495 -0.798,-2.4l0,-0.84l-12.796,0c-2.247,0 -4.062,1.834 -4.062,4.081c0,2.237 1.815,4.062 4.062,4.062l13.842,0c-0.174,-1.769 -0.267,-3.129 -0.313,-3.969c-0.003,-0.043 -0.003,-0.052 -0.005,-0.094z"/>
  <path id="svg_73" fill="#949494" d="m129.885,153.774c0,-0.037 -0.021,-0.07 -0.021,-0.107c0.005,0.06 0.005,0.098 0.012,0.158c-0.001,-0.018 0.009,-0.032 0.009,-0.051z"/>
  <path id="svg_74" fill="#949494" d="m114.302,152.688l15.26,-0.506c-0.618,-1.458 -2.057,-2.488 -3.74,-2.488l-10.887,0l0,0.84c0.001,0.798 -0.266,1.508 -0.633,2.154z"/>
  <path id="svg_75" fill="#949494" d="m110.491,140.353c2.077,0 3.732,1.449 4.227,3.366l5.056,0c2.781,0 5.035,-2.247 5.035,-5.033c0,-2.795 -2.254,-5.037 -5.035,-5.037l-19.15,0c-2.781,0 -5.037,2.242 -5.037,5.037c0,2.786 2.256,5.033 5.037,5.033l5.652,0c0.491,-1.918 2.146,-3.366 4.215,-3.366z"/>
  <path id="svg_76" fill="#949494" d="m114.936,144.805c0,-0.385 -0.127,-0.729 -0.218,-1.086l-8.442,0c-0.093,0.357 -0.218,0.701 -0.218,1.086l0,4.889l8.878,0l0,-4.889z"/>
  <path id="svg_77" fill="#949494" d="m106.855,152.934l7.447,-0.246c0.367,-0.646 0.633,-1.356 0.633,-2.154l0,-0.84l-8.878,0l0,0.84c0,0.905 0.337,1.699 0.798,2.4z"/>
  <path id="svg_78" fill="#949494" d="m110.491,140.353c-2.068,0 -3.724,1.449 -4.215,3.366l8.442,0c-0.495,-1.918 -2.15,-3.366 -4.227,-3.366z"/>
  <path id="svg_79" fill="#D1D1D1" d="m357.269,209.684c0,0 -0.413,-0.139 -1.013,-0.334l0,0c0.64,0.213 1.013,0.334 1.013,0.334z"/>
  <path id="svg_80" fill="#D1D1D1" d="m333.688,202.2c11.402,3.496 19.801,6.24 22.567,7.149l0,0c-2.697,-0.891 -11.067,-3.63 -22.567,-7.154l0,0.005z"/>
  <path id="svg_81" fill="#D1D1D1" d="m357.269,209.684c0,0 -0.372,-0.121 -1.013,-0.334c-2.767,-0.91 -11.165,-3.653 -22.567,-7.149l0,11.346l0,33.881l37.596,0l1.049,2.813l-15.065,-40.557z"/>
  <path id="svg_82" fill="#D1D1D1" d="m357.269,209.684c0,0 -0.372,-0.121 -1.013,-0.334c-2.767,-0.91 -11.165,-3.653 -22.567,-7.149l0,11.346l0,33.881l37.596,0l1.049,2.813l-15.065,-40.557z"/>
  <path id="svg_84" fill="#D1D1D1" d="m341.154,306.555l30.701,-25.58l-37.999,0c3.681,9.034 5.998,17.808 7.298,25.58z"/>
  <polygon id="svg_85" fill="#D1D1D1" points="372.333,250.241 371.284,247.428 333.688,247.428 333.688,253.449 333.688,254.168     333.688,256.086 333.688,256.978 333.688,260.529 378.137,260.529 378.137,256.978 378.137,256.086 378.137,254.168     378.137,253.449 378.137,251.406   "/>
  <path id="svg_89" fill="#D1D1D1" d="m341.154,306.555l30.701,-25.58l-37.999,0c3.681,9.034 5.998,17.808 7.298,25.58z"/>
  <polygon id="svg_91" fill="#D1D1D1" points="372.333,250.241 371.284,247.428 333.688,247.428 333.688,253.449 333.688,254.168       333.688,256.086 333.688,256.978 333.688,260.529 378.137,260.529 378.137,256.978 378.137,256.086 378.137,254.168       378.137,253.449 378.137,251.406     "/>
  <rect id="svg_92" fill="#D1D1D1" y="256.36" x="333.688" width="44.448" height="0.915"/>
  <polygon id="svg_93" fill="#251F1F" points="378.137,275.742 371.855,280.975 379.32,280.975 379.32,260.529 378.137,260.529    378.137,261.081  "/>
  <path id="svg_94" fill="#251F1F" d="m332.407,277.679c0.418,0.951 0.887,1.907 1.281,2.854l0,-19.452l-1.281,0l0,16.598z"/>
  <rect id="svg_95" fill="#251F1F" y="260.529" x="332.407" width="1.281" height="0.552"/>
  <path id="svg_96" fill="#251F1F" d="m378.137,261.081l-44.448,0l0,19.452c0.056,0.148 0.103,0.293 0.168,0.441l37.999,0l6.281,-5.232l0,-14.661z"/>
  <rect id="svg_97" fill="#251F1F" y="260.529" x="333.688" width="44.448" height="0.552"/>
  <path id="svg_98" fill="#949494" d="m107.111,157.836l-0.007,0c0.051,0.52 0.109,1.072 0.176,1.662l0.016,0c-0.067,-0.584 -0.134,-1.146 -0.185,-1.662z"/>
  <path id="svg_99" fill="#949494" d="m320.003,314.048l0.009,0l-1.067,0.232c0.408,3.249 0.501,5.357 0.511,5.784l13.063,-0.315c-0.324,-2.559 -0.816,-5.293 -1.393,-8.097l-11.123,2.396z"/>
  <path id="svg_100" fill="#949494" d="m182.962,233.542c8.628,0.687 17.403,0.887 26.068,1.059c17.433,0.343 35.453,0.696 50.396,5.353c6.444,2.006 12.164,4.559 17.299,7.475l17.391,0c-9.936,-8.449 -22.089,-15.599 -37.055,-20.25c-13.284,-4.132 -27.444,-5.432 -41.573,-5.984c-1.567,1.476 -3.64,2.4 -5.938,2.4c-2.475,0 -4.701,-1.058 -6.3,-2.744c-0.989,-0.023 -1.985,-0.046 -2.971,-0.065c-6.344,-0.125 -12.554,-0.269 -18.57,-0.58l1.665,13.273c-0.135,0.017 -0.274,0.044 -0.412,0.063z"/>
  <path id="svg_101" fill="#949494" d="m111.159,161.699l-3.584,0.116c-0.116,-0.845 -0.195,-1.569 -0.279,-2.316l-0.016,0c0.543,4.795 1.644,11.769 3.823,19.499c0.026,-6.018 0.044,-11.932 0.056,-17.299z"/>
  <path id="svg_102" fill="#949494" d="m146.468,225.432c2.911,1.286 5.926,2.331 8.988,3.268c7.707,-4.578 16.052,-7.344 24.113,-8.607c-12.258,-0.734 -23.568,-2.345 -32.985,-6.504c-24.257,-10.733 -26.007,-51.787 -26.031,-52.196l-7.094,0.232c-0.016,7.502 -0.044,16.096 -0.086,24.489c5.421,15.144 15.249,31.421 33.095,39.318z"/>
  <path id="svg_103" fill="#949494" d="m294.423,261.081c18.018,18.58 23.087,42.057 24.493,52.967l1.087,0l11.123,-2.396c-3.175,-15.492 -10.315,-34.174 -23.616,-50.571l-13.087,0z"/>
  <polygon id="svg_104" fill="#949494" points="320.003,314.048 318.944,314.275 318.944,314.28 320.012,314.048  "/>
  <path id="svg_105" fill="#949494" d="m318.944,314.275l1.059,-0.228l-1.087,0c0.01,0.075 0.019,0.154 0.028,0.228z"/>
  <path id="svg_106" fill="#949494" d="m182.962,233.542c0.137,-0.019 0.276,-0.046 0.411,-0.065l-1.665,-13.273c-0.712,-0.037 -1.435,-0.065 -2.14,-0.111c-8.062,1.263 -16.407,4.029 -24.113,8.607c8.745,2.678 18.025,4.085 27.507,4.842z"/>
  <path id="svg_107" fill="#949494" d="m113.459,161.625l-2.3,0.075c-0.012,5.367 -0.03,11.281 -0.056,17.298c0.654,2.321 1.407,4.703 2.27,7.117c0.043,-8.395 0.07,-16.988 0.086,-24.49z"/>
  <path id="svg_108" fill="#949494" d="m303.253,256.086c-0.548,-0.599 -1.17,-1.156 -1.736,-1.746l-14.522,0c0.725,0.576 1.431,1.156 2.117,1.746l14.141,0z"/>
  <path id="svg_109" fill="#949494" d="m289.111,256.086c1.89,1.615 3.649,3.282 5.312,4.995l13.087,0c-1.369,-1.685 -2.753,-3.365 -4.257,-4.995l-14.142,0z"/>
  <path id="svg_110" fill="#949494" d="m301.345,254.168c-2.261,-2.331 -4.675,-4.573 -7.229,-6.741l-17.391,0c3.648,2.075 7.01,4.327 10.064,6.741l14.556,0z"/>
  <path id="svg_111" fill="#949494" d="m286.994,254.34l14.522,0c-0.056,-0.056 -0.116,-0.116 -0.172,-0.172l-14.554,0c0.069,0.056 0.135,0.117 0.204,0.172z"/>
  <path id="svg_112" fill="#949494" d="m209.55,223.593c2.298,0 4.371,-0.924 5.938,-2.4c-4.093,-0.163 -8.173,-0.26 -12.238,-0.344c1.6,1.686 3.826,2.744 6.3,2.744z"/>
  <path id="svg_113" fill="#949494" d="m106.786,153.774c-0.021,-0.409 -0.032,-0.715 -0.037,-0.836c0.004,0.126 0.016,0.423 0.037,0.836z"/>
  <path id="svg_114" fill="#949494" d="m106.791,153.867c0.046,0.84 0.139,2.2 0.313,3.969l0.007,0c-0.174,-1.736 -0.274,-3.133 -0.32,-3.969z"/>
  <polygon id="svg_115" fill="#F6F6F6" points="332.519,319.763 342.491,319.512 332.519,319.749  "/>
  <path id="svg_116" fill="#F6F6F6" d="m106.791,153.867c-0.002,-0.037 -0.002,-0.061 -0.005,-0.093c0.002,0.042 0.002,0.051 0.005,0.093z"/>
  <path id="svg_117" fill="#F6F6F6" d="m129.766,152.177l-0.204,0.004c0.195,0.46 0.288,0.966 0.302,1.486c-0.065,-0.863 -0.095,-1.448 -0.098,-1.49z"/>
  <polygon id="svg_118" fill="#F6F6F6" points="113.464,159.586 112.083,159.568 113.464,159.591  "/>
  <path id="svg_119" fill="#F6F6F6" d="m318.614,254.34c-0.041,-0.056 -0.088,-0.116 -0.134,-0.172l-17.136,0c0.056,0.056 0.116,0.116 0.172,0.172l17.098,0z"/>
  <polygon id="svg_120" fill="#F6F6F6" points="336.409,310.51 333.688,311.1 333.688,311.1  "/>
  <path id="svg_122" fill="#F6F6F6" d="m341.154,306.555c-1.3,-7.771 -3.617,-16.546 -7.298,-25.58l-0.168,0l-1.281,0l0,-3.296c-2.46,-5.553 -5.45,-11.133 -9.016,-16.598c-1.096,-1.681 -2.237,-3.343 -3.449,-4.995c-0.432,-0.585 -0.887,-1.165 -1.328,-1.746l-17.098,0c0.566,0.59 1.188,1.147 1.736,1.746c1.504,1.63 2.888,3.311 4.257,4.995c13.301,16.397 20.441,35.079 23.616,50.571c0.576,2.804 1.068,5.538 1.393,8.097l9.973,-0.237c-0.093,-3.797 -0.539,-8.203 -1.337,-12.957z"/>
  <path id="svg_123" fill="#F6F6F6" d="m312.835,247.428c-11.318,-12.451 -26.43,-23.199 -46.564,-29.461c-0.186,-0.056 -0.381,-0.098 -0.566,-0.153c-15.121,-4.615 -31.337,-5.622 -47.356,-6.04c-2.962,-0.074 -5.919,-0.144 -8.86,-0.199c-2.941,-0.061 -5.845,-0.121 -8.728,-0.2c-2.296,-0.061 -4.573,-0.135 -6.817,-0.228c-6.066,-0.251 -11.908,-0.687 -17.475,-1.439c-2.486,-0.334 -4.914,-0.738 -7.272,-1.226c-4.763,-0.989 -9.276,-2.284 -13.401,-4.108c-1.279,-0.566 -2.46,-1.258 -3.616,-1.982c-11.516,-7.205 -17.147,-21.667 -19.873,-33.259c-0.114,-0.488 -0.218,-0.961 -0.323,-1.435c-0.399,-1.82 -0.75,-3.575 -1.019,-5.172c-0.158,-0.957 -0.288,-1.829 -0.408,-2.679c-0.369,-2.614 -0.578,-4.694 -0.68,-6.021c-0.007,-0.06 -0.007,-0.098 -0.012,-0.158c-0.014,-0.52 -0.107,-1.026 -0.302,-1.486l-15.26,0.506l-7.447,0.246l-0.107,0.004c0.005,0.121 0.017,0.427 0.037,0.836c0.002,0.032 0.002,0.056 0.005,0.093c0.046,0.835 0.146,2.233 0.32,3.969c0.051,0.515 0.118,1.077 0.186,1.662c0.083,0.748 0.163,1.472 0.279,2.316l3.584,-0.116l2.3,-0.075l7.094,-0.232c0.023,0.409 1.773,41.462 26.031,52.196c9.417,4.16 20.727,5.771 32.985,6.504c0.706,0.046 1.428,0.074 2.14,0.111c6.017,0.311 12.226,0.455 18.57,0.58c0.986,0.019 1.982,0.042 2.971,0.065c4.064,0.083 8.145,0.181 12.238,0.344c14.129,0.552 28.289,1.853 41.573,5.984c14.966,4.651 27.119,11.801 37.055,20.25c2.554,2.168 4.968,4.41 7.229,6.741l17.136,0c-1.761,-2.295 -3.646,-4.538 -5.647,-6.738zm-199.371,-87.837l-1.381,-0.023l1.381,0.019l0,0.004z"/>
  <path id="svg_124" fill="#F6F6F6" d="m332.407,280.975l1.281,0l0,-0.441c-0.395,-0.947 -0.863,-1.903 -1.281,-2.854l0,3.295z"/>
  <path id="svg_125" fill="#F6F6F6" d="m333.856,280.975c-0.065,-0.148 -0.112,-0.293 -0.168,-0.441l0,0.441l0.168,0z"/>
  <path id="svg_127" fill="#26b540" d="m496.725,302.817c-7.943,-10.524 0.976,-25.297 0.976,-25.297s-15.864,9.248 -18.491,23.352c-2.628,14.104 -1.686,23.334 -15.293,30.214c-9.002,4.55 -17.321,2.762 -22.66,-3.937c-5.339,-6.699 6.146,-15.558 5.841,-15.571c-16.807,-0.669 -27.289,16.421 -36.003,22.382c-9.74,6.666 -14.796,3.449 -16.467,-4.438c-2.345,-11.105 17.437,-33.515 17.437,-33.515s-23.063,4.735 -42.813,30.167c-6.352,8.181 -26.546,22.901 -26.277,0.976c0.14,-10.905 5.984,-19.536 5.841,-19.467c-24.095,11.519 -30.391,42.104 -44.764,45.738c-14.363,3.635 -17.414,4.317 -22.377,1.945c-4.967,-2.372 4.912,-17.038 4.731,-16.922c-17.99,11.421 -14.917,17.367 -24.192,22.762c-9.281,5.396 -13.9,5.404 -13.9,5.404l239.21,0c9.169,-19.201 15.984,-39.735 20.148,-61.221c-4.364,1.096 -8.426,0.771 -10.947,-2.572z"/>
  <path id="svg_128" fill="#FFFF00" d="m494.181,308.468c0,0 -11.736,4.345 -18.69,37.813c-3.584,17.261 -34.132,12.251 -36.072,10.432c-13.473,-12.604 -4.912,-24.769 -5.219,-24.772c-16.806,-0.209 -16.949,15.645 -33.899,26.509c-8.385,5.376 -19.063,1.936 -20.863,-0.432c-8.255,-10.864 6.086,-30.423 6.086,-30.423s-11.917,5.747 -24.341,26.077c-4.777,7.822 -22.451,9.1 -25.641,3.041c-4.345,-8.26 4.489,-16.537 4.351,-16.514c-24.095,3.593 -19.731,22.465 -34.1,23.598c-14.368,1.138 -17.414,1.352 -22.382,0.608c-4.967,-0.743 -5.079,-9.531 -5.236,-9.429c-6.087,3.908 -4.949,9.568 -14.225,11.253c-9.278,1.681 -13.897,1.686 -13.897,1.686l236.85,0c3.478,-7.178 6.61,-14.545 9.415,-22.075c-5.034,-8.524 -2.137,-37.372 -2.137,-37.372z"/>
  <path id="svg_129" fill="#212830" d="m25.333,366.731c41.207,86.165 129.178,145.696 231.063,145.696s189.86,-59.531 231.072,-145.696l-462.135,0z"/>
  <path id="svg_130" fill="#1c7f2e" d="m440.104,378.073c-13.473,12.604 -4.911,24.768 -5.214,24.772c-16.811,0.208 -16.949,-15.646 -33.904,-26.509c-8.384,-5.376 -19.057,-1.937 -20.858,0.432c-8.259,10.863 6.086,30.422 6.086,30.422s-11.922,-5.747 -24.34,-26.077c-4.777,-7.822 -22.456,-9.099 -25.641,-3.04c-4.346,8.259 4.489,16.536 4.345,16.513c-24.095,-3.593 -19.73,-22.465 -34.095,-23.598c-14.373,-1.138 -17.418,-1.351 -22.386,-0.608c-4.963,0.743 -5.079,9.531 -5.237,9.429c-6.081,-3.908 -4.944,-9.567 -14.225,-11.253c-0.794,-0.144 -1.504,-0.26 -2.232,-0.381l-13.401,0c0,0 4.619,0.01 13.897,5.404c9.276,5.395 6.207,11.342 24.197,22.762c0.181,0.116 -9.703,-14.55 -4.735,-16.922s8.013,-1.689 22.382,1.945c14.368,3.635 20.663,34.22 44.758,45.738c0.148,0.069 -5.7,-8.561 -5.835,-19.466c-0.27,-21.927 19.921,-7.205 26.271,0.975c19.754,25.432 42.818,30.167 42.818,30.167s-19.782,-22.409 -17.438,-33.515c1.667,-7.888 6.727,-11.104 16.467,-4.438c8.71,5.961 19.192,23.05 35.998,22.381c0.307,-0.014 -11.175,-8.871 -5.836,-15.57c5.34,-6.699 13.654,-8.487 22.66,-3.938c0.298,0.153 0.558,0.312 0.846,0.469c3.719,-5.255 7.232,-10.659 10.552,-16.192c-4.135,-16.582 -33.978,-11.704 -35.9,-9.902z"/>
  <path id="svg_131" fill="#B56300" d="m262.403,368.175l224.34,0c0.214,-0.437 0.441,-0.868 0.65,-1.305l-236.652,0c0,0 3.909,0.019 11.662,1.305z"/>
  <path id="svg_132" fill="#7f731c" d="m262.403,368.175c0.729,0.121 1.438,0.237 2.232,0.381c9.28,1.686 8.144,7.345 14.225,11.253c0.158,0.103 0.274,-8.686 5.237,-9.429c4.968,-0.742 8.013,-0.529 22.386,0.608c14.364,1.133 10,20.005 34.095,23.598c0.145,0.023 -8.69,-8.254 -4.345,-16.513c3.185,-6.059 20.863,-4.782 25.641,3.04c12.418,20.33 24.34,26.077 24.34,26.077s-14.345,-19.559 -6.086,-30.422c1.802,-2.368 12.475,-5.808 20.858,-0.432c16.955,10.863 17.094,26.717 33.904,26.509c0.303,-0.005 -8.259,-12.169 5.214,-24.772c1.922,-1.802 31.765,-6.681 35.9,9.902c3.858,-6.426 7.447,-13.027 10.738,-19.801l-224.339,0l0,0.001z"/>
  <path id="svg_133" fill="#030A17" d="m82.587,444.35c45.645,42.247 106.706,68.078 173.809,68.078c67.104,0 128.166,-25.831 173.812,-68.078l-347.621,0z"/>
  <path id="svg_134" fill="#722071" d="m482.18,377.093c1.829,-3.412 3.607,-6.856 5.288,-10.361l-462.135,0c1.676,3.505 3.456,6.949 5.285,10.361l451.562,0z"/>
 </g>
</svg>